# xmcd
#
# Track frame offsets:
#	150
#	10757
#	22959
#	37428
#	54865
#	68272
#	79509
#	93300
#	108408
#	122481
#	139641
#
# Disc length: 2042 seconds
# Revision: 2
# Processed by: cddbd v1.5.2PL0 Copyright (c) Steve Scherf et al.
# Submitted via: dBpowerAMP V12.0
#
DISCID=7b07f80b
DTITLE=Carrie Hassler - Carrie Hassler and Hard Rain
DYEAR=2006
DGENRE=Country
TTITLE0=Restless State of Mind
TTITLE1=Seven Miles from Wichita
TTITLE2=Our Last Goodbye
TTITLE3=Going on the Next Train
TTITLE4=Leavin' on Your Mind
TTITLE5=Leaving You Behind
TTITLE6=Sensabaugh Tunnel
TTITLE7=Least That I Can Do
TTITLE8=Hard Rain
TTITLE9=Now That She's Gone
TTITLE10=Love Is Our Business
EXTD=
EXTT0=
EXTT1=
EXTT2=
EXTT3=
EXTT4=
EXTT5=
EXTT6=
EXTT7=
EXTT8=
EXTT9=
EXTT10=
PLAYORDER=
